<svg width="33" height="35" viewBox="0 0 33 35" fill="none" xmlns="http://www.w3.org/2000/svg">
<rect width="32.547" height="34.5781" fill="#FFD014"/>
<path d="M25.68 23.9118C23.6856 25.6725 21.0835 26.7344 18.2444 26.7344C12.2888 26.7344 7.8262 22.122 7.8262 16.8497C7.8262 11.8919 11.7794 7.84366 16.6805 7.84366C21.306 7.84366 24.6433 11.4299 24.6433 15.3127C24.6433 18.9524 21.7719 21.9047 18.2444 21.9047C15.0167 21.9047 12.7386 19.4599 12.7386 16.8497C12.7386 14.507 14.5508 12.6734 16.6821 12.6734C18.5684 12.6734 19.7325 14.0482 19.7325 15.3127C19.7325 16.4103 18.9602 17.0734 18.2444 17.0734C17.9913 17.0734 17.8945 17.0199 17.793 16.9567C18.0235 16.66 18.138 16.2741 18.0799 15.8721C17.9655 15.0955 17.2464 14.5589 16.4742 14.674C15.8115 14.7729 15.3907 15.2236 15.1828 15.5575C14.9474 15.9321 14.8216 16.3828 14.8216 16.8497C14.8216 18.7125 16.558 19.9171 18.2444 19.9171C20.7078 19.9187 22.5603 17.7673 22.5603 15.3127C22.5603 12.3086 19.9565 9.8297 16.6821 9.8297C12.8789 9.8297 9.9108 13.0495 9.9108 16.8497C9.9108 21.1557 13.5818 24.7468 18.246 24.7468C23.4019 24.7468 27.473 20.4537 27.473 15.3111C27.473 9.78268 22.7924 5 16.6821 5C10.1817 5 5 10.3598 5 16.8497C5 23.7789 10.8169 29.5781 18.246 29.5781C21.7993 29.5781 25.059 28.2438 27.547 26.0486L25.68 23.9118ZM17.6462 16.8189C17.6462 16.8156 17.6446 16.8173 17.6462 16.8189Z" fill="black"/>
</svg>
